<svg xmlns="http://www.w3.org/2000/svg" viewBox="0 0 56.68 57.5"><defs><style>.cls-1{fill:#55c88e;}.cls-2{fill:none;stroke:#55c88e;stroke-miterlimit:10;}</style></defs><title>alpha-streetcar</title><g id="Слой_2" data-name="Слой 2"><g id="streetcar-alpha"><g id="streetcar"><g id="body"><path class="cls-1" d="M41.34,0h-26a8.51,8.51,0,0,0-8.5,8.5v35a8.51,8.51,0,0,0,8.5,8.5h26a8.51,8.51,0,0,0,8.5-8.5V8.5A8.51,8.51,0,0,0,41.34,0Zm-18,43.18a1.18,1.18,0,0,1-1.18,1.19H12.24a1.42,1.42,0,0,1-1.14-.57L9.68,41.91a1.42,1.42,0,0,1,1.14-2.28H22.18a1.18,1.18,0,0,1,1.18,1.19ZM46.3,41.91,44.88,43.8a1.42,1.42,0,0,1-1.13.57h-10a1.18,1.18,0,0,1-1.18-1.19V40.82a1.18,1.18,0,0,1,1.18-1.19H45.17A1.42,1.42,0,0,1,46.3,41.91Zm1.29-14.79A5.88,5.88,0,0,1,41.71,33H15a5.88,5.88,0,0,1-5.88-5.88v-15A5.88,5.88,0,0,1,15,6.25H41.71a5.88,5.88,0,0,1,5.88,5.88Z"/></g><g id="whil-left"><path class="cls-1" d="M14.83,57.5h-.48a3.09,3.09,0,0,1-3.09-3.1V48.73a1.23,1.23,0,0,1,1.23-1.23h4.2a1.23,1.23,0,0,1,1.23,1.23V54.4A3.09,3.09,0,0,1,14.83,57.5Z"/></g><g id="whil-right"><path class="cls-1" d="M42.83,57.5h-.48a3.09,3.09,0,0,1-3.09-3.1V48.73a1.23,1.23,0,0,1,1.23-1.23h4.2a1.23,1.23,0,0,1,1.23,1.23V54.4A3.09,3.09,0,0,1,42.83,57.5Z"/></g><g id="mirror-left"><rect id="squere" class="cls-1" y="14.25" width="4.44" height="11.11" rx="1.67" ry="1.67"/><line id="line" class="cls-2" x1="1.67" y1="23.69" x2="7.22" y2="29.25"/></g><g id="mirror-right"><rect id="squere-2" data-name="squere" class="cls-1" x="52.24" y="14.25" width="4.44" height="11.11" rx="1.67" ry="1.67" transform="translate(108.92 39.61) rotate(-180)"/><line id="line-2" data-name="line" class="cls-2" x1="55.01" y1="23.69" x2="49.46" y2="29.25"/></g></g></g></g></svg>