<svg xmlns="http://www.w3.org/2000/svg" viewBox="0 0 40 61"><defs><style>.cls-1{fill:#55c88e;}.cls-2,.cls-3{fill:none;stroke:#55c88e;}.cls-2{stroke-miterlimit:10;stroke-width:2px;}.cls-3{stroke-linecap:round;stroke-linejoin:round;stroke-width:3px;}</style></defs><title>alpha-tram</title><g id="Слой_2" data-name="Слой 2"><g id="tram-alpha"><g id="tram"><g id="body"><path class="cls-1" d="M20,9C8,9,0,11.29,0,14.13V58a3,3,0,0,0,3,3H37a3,3,0,0,0,3-3V14.13C40,11.29,32,9,20,9ZM9.75,56.75a3.5,3.5,0,1,1,3.5-3.5A3.5,3.5,0,0,1,9.75,56.75Zm20.5,0a3.5,3.5,0,1,1,3.5-3.5A3.5,3.5,0,0,1,30.25,56.75ZM36,43a3.08,3.08,0,0,1-3.07,3.07H7.07A3.08,3.08,0,0,1,4,43V17.13a3.07,3.07,0,0,1,3.07-3.07H32.93A3.07,3.07,0,0,1,36,17.13Z"/></g><g id="antenna"><line id="anode-bottom-right" class="cls-2" x1="30" y1="10.5" x2="30" y2="3"/><line id="anode-bottom-left" class="cls-2" x1="10" y1="10.5" x2="10" y2="3"/><path id="anode" class="cls-3" d="M3.5,3.5a65,65,0,0,1,32,0"/></g></g></g></g></svg>