<svg xmlns="http://www.w3.org/2000/svg" viewBox="0 0 44 44"><defs><style>.cls-1{fill:#31c890;}</style></defs><title>alpha-full</title><g id="Слой_2" data-name="Слой 2"><g id="full"><g id="full-2" data-name="full"><g id="top-right"><rect id="Y" class="cls-1" x="34" y="6" width="16" height="4" transform="translate(50 -34) rotate(90)"/><rect id="X" class="cls-1" x="28" width="16" height="4" transform="translate(72 4) rotate(-180)"/><rect id="KX_B" data-name="KX+B" class="cls-1" x="24.5" y="7.5" width="20" height="4" transform="translate(3.3873 27.17767) rotate(-45)"/></g><g id="top-left"><rect id="Y-2" data-name="Y" class="cls-1" x="-6" y="6" width="16" height="4" transform="translate(10 6) rotate(90)"/><rect id="X-2" data-name="X" class="cls-1" width="16" height="4"/><rect id="KX_B-2" data-name="KX+B" class="cls-1" x="-0.5" y="7.5" width="20" height="4" transform="translate(9.5 22.93503) rotate(-135)"/></g><g id="bottom-left"><rect id="Y-3" data-name="Y" class="cls-1" x="-6" y="34" width="16" height="4" transform="translate(-34 38) rotate(-90)"/><rect id="X-3" data-name="X" class="cls-1" y="40" width="16" height="4"/><rect id="KX_B-3" data-name="KX+B" class="cls-1" x="-0.5" y="32.5" width="20" height="4" transform="translate(40.6127 52.17767) rotate(135)"/></g><g id="bottom-right"><rect id="Y-4" data-name="Y" class="cls-1" x="34" y="34" width="16" height="4" transform="translate(6 78) rotate(-90)"/><rect id="X-4" data-name="X" class="cls-1" x="28" y="40" width="16" height="4" transform="translate(72 84) rotate(-180)"/><rect id="KX_B-4" data-name="KX+B" class="cls-1" x="24.5" y="32.5" width="20" height="4" transform="translate(34.5 -14.29037) rotate(45)"/></g></g></g></g></svg>