<svg xmlns="http://www.w3.org/2000/svg" viewBox="0 0 47 62.98"><defs><style>.cls-1{fill:#55c88e;}.cls-2,.cls-3{fill:none;stroke:#55c88e;stroke-width:2px;}.cls-2{stroke-miterlimit:10;}.cls-3{stroke-linecap:round;stroke-linejoin:round;}</style></defs><title>alpha-bus</title><g id="Слой_2" data-name="Слой 2"><g id="bus-alpha"><g id="bus"><path id="while-left" class="cls-1" d="M6.4,53h4.2a1.23,1.23,0,0,1,1.23,1.23v5.67A3.1,3.1,0,0,1,8.74,63H8.26a3.1,3.1,0,0,1-3.1-3.1V54.21A1.23,1.23,0,0,1,6.4,53Z"/><path id="while-right" class="cls-1" d="M36.4,53h4.2a1.23,1.23,0,0,1,1.23,1.23v5.67a3.1,3.1,0,0,1-3.1,3.1h-.47a3.1,3.1,0,0,1-3.1-3.1V54.21A1.23,1.23,0,0,1,36.4,53Z"/><g id="power"><rect id="hoarder" class="cls-1" x="11.5" y="8.48" width="24" height="4" rx="2" ry="2"/><g id="antenns"><g id="antenna"><line id="vertical-line" class="cls-2" x1="16.5" y1="10.48" x2="25.98" y2="1"/><line id="horizontel-line" class="cls-3" x1="22.98" y1="1" x2="27.98" y2="1"/></g><g id="antenna-2" data-name="antenna"><line id="vertical-line-2" data-name="vertical-line" class="cls-2" x1="26.5" y1="10.48" x2="35.98" y2="1"/><line id="horizontel-line-2" data-name="horizontel-line" class="cls-3" x1="32.98" y1="1" x2="37.98" y2="1"/></g></g></g><path id="body" class="cls-1" d="M39,10.48H8a8,8,0,0,0-8,8v32a6,6,0,0,0,6,6H41a6,6,0,0,0,6-6v-32A8,8,0,0,0,39,10.48ZM10.5,53a3.5,3.5,0,1,1,3.5-3.5A3.5,3.5,0,0,1,10.5,53ZM37,53a3.5,3.5,0,1,1,3.5-3.5A3.5,3.5,0,0,1,37,53Zm7-16.5a6,6,0,0,1-6,6H9a6,6,0,0,1-6-6V20a6,6,0,0,1,6-6H38a6,6,0,0,1,6,6Z"/></g></g></g></svg>