<svg xmlns="http://www.w3.org/2000/svg" viewBox="0 0 45.25537 46.59538"><defs><style>.cls-1{fill:#31c890;}</style></defs><title>footstep</title><g id="Слой_2" data-name="Слой 2"><g id="footstep"><g id="footstep-2" data-name="footstep"><ellipse id="toe-left" class="cls-1" cx="6.04435" cy="17.17874" rx="4.7241" ry="10.0954" transform="translate(-6.69374 4.16396) rotate(-24.99999)"/><ellipse id="toe-right" class="cls-1" cx="39.21102" cy="17.17873" rx="10.0954" ry="4.7241" transform="translate(7.07051 45.45593) rotate(-65)"/><ellipse id="toe-middle" class="cls-1" cx="22.62768" cy="10.0954" rx="4.7241" ry="10.0954"/><path id="heel" class="cls-1" d="M28.79435,41.07456c0-2.54284,2.68628-4.60418,6-4.60418a6.99223,6.99223,0,0,1,4.251,1.35553,6.30327,6.30327,0,0,0,.16571-1.35553c0-5.59186-7.42463-10.125-16.58338-10.125S6.04435,30.87852,6.04435,36.47038s7.42462,10.125,16.58331,10.125c.90333,0,1.78925-.04458,2.65259-.13014a4.17061,4.17061,0,0,0,3.54735-4.90386A3.57311,3.57311,0,0,1,28.79435,41.07456Z"/></g></g></g></svg>